<svg width="32" height="32" fill="none" xmlns="http://www.w3.org/2000/svg"><path fill-rule="evenodd" clip-rule="evenodd" d="M26.838 4.882c.297-1.716.731-2.795 1.212-2.797h.001c.898.003 1.625 3.745 1.625 8.366 0 4.62-.728 8.365-1.627 8.365-.368 0-.708-.636-.982-1.701-.432 3.9-1.33 6.582-2.368 6.582-.804 0-1.525-1.61-2.01-4.151-.33 4.832-1.162 8.26-2.135 8.26-.61 0-1.167-1.359-1.579-3.57C18.48 28.8 17.335 32 16 32c-1.334 0-2.481-3.198-2.975-7.765-.409 2.212-.965 3.57-1.579 3.57-.972 0-1.802-3.427-2.135-8.259-.484 2.54-1.204 4.151-2.01 4.151-1.037 0-1.935-2.68-2.368-6.582-.271 1.069-.613 1.701-.982 1.701-.898 0-1.626-3.745-1.626-8.365s.728-8.366 1.626-8.366c.483 0 .914 1.082 1.213 2.797C5.644 1.923 6.422 0 7.302 0c1.045 0 1.95 2.72 2.378 6.67.42-2.875 1.055-4.708 1.768-4.708.998 0 1.846 3.604 2.16 8.632.591-2.578 1.447-4.195 2.394-4.195.948 0 1.803 1.618 2.393 4.195.316-5.028 1.163-8.632 2.161-8.632.711 0 1.346 1.833 1.767 4.707C22.751 2.72 23.656 0 24.701 0c.877 0 1.658 1.924 2.137 4.882zM0 9.628c0-2.066.413-3.74.923-3.74s.923 1.674.923 3.74c0 2.065-.414 3.74-.923 3.74-.51 0-.923-1.675-.923-3.74zm30.154 0c0-2.066.413-3.74.923-3.74S32 7.562 32 9.628c0 2.065-.413 3.74-.923 3.74s-.923-1.675-.923-3.74z" fill="#A238FF"/></svg>