<svg id="Layer_1" data-name="Layer 1" xmlns="http://www.w3.org/2000/svg" viewBox="0 0 48 48"><defs><style>.cls-2{fill:#e2241d}.cls-3{fill:#ee8f7a}.cls-4{fill:#fddc00}.cls-5{fill:#d62c87}.cls-6{fill:#e7a8cb}.cls-7{fill:#c2d100}.cls-8{fill:#e3e07a}.cls-9{fill:#40b4e5}.cls-10{fill:#bad8e9}.cls-11{fill:#fff}</style></defs><g id="icons_marques_services-en-ligne_deezer" data-name="icons/marques/services-en-ligne/deezer"><rect id="Rectangle" width="48" height="48" rx="1.51" ry="1.51" fill="#162737"/><g id="Group-4"><g id="Group-46"><path id="Fill-1" class="cls-2" d="M5.91 26.7h6.78v-2.06H5.91v2.06z"/><path id="Fill-2" class="cls-2" d="M5.91 24.03h6.78v-2.06H5.91v2.06z"/><path id="Fill-3" class="cls-2" d="M5.91 21.36h6.78V19.3H5.91v2.06z"/><path id="Fill-4" class="cls-3" d="M5.91 18.68h6.78v-2.05H5.91v2.05z"/><path id="Fill-5" class="cls-3" d="M5.91 16.01h6.78v-2.05H5.91v2.05z"/><path id="Fill-6" class="cls-4" d="M13.51 26.7h6.78v-2.06h-6.78v2.06z"/><path id="Fill-7" class="cls-4" d="M13.51 24.03h6.78v-2.06h-6.78v2.06z"/><path id="Fill-8" class="cls-4" d="M13.51 21.36h6.78V19.3h-6.78v2.06z"/><path id="Fill-9" class="cls-5" d="M21.12 26.7h6.78v-2.06h-6.78v2.06z"/><path id="Fill-10" class="cls-5" d="M21.12 24.03h6.78v-2.06h-6.78v2.06z"/><path id="Fill-11" class="cls-5" d="M21.12 21.36h6.78V19.3h-6.78v2.06z"/><path id="Fill-12" class="cls-6" d="M21.12 18.68h6.78v-2.05h-6.78v2.05z"/><path id="Fill-13" class="cls-6" d="M21.12 16.01h6.78v-2.05h-6.78v2.05z"/><path id="Fill-14" class="cls-6" d="M21.12 13.34h6.78v-2.06h-6.78v2.06z"/><path id="Fill-15" class="cls-6" d="M21.12 10.67h6.78V8.61h-6.78v2.06z"/><path id="Fill-16" class="cls-7" d="M28.72 26.7h6.78v-2.06h-6.78v2.06z"/><path id="Fill-17" class="cls-7" d="M28.72 24.03h6.78v-2.06h-6.78v2.06z"/><path id="Fill-18" class="cls-7" d="M28.72 21.36h6.78V19.3h-6.78v2.06z"/><path id="Fill-19" class="cls-8" d="M28.72 18.68h6.78v-2.05h-6.78v2.05z"/><path id="Fill-20" class="cls-8" d="M28.72 16.01h6.78v-2.05h-6.78v2.05z"/><path id="Fill-21" class="cls-9" d="M36.32 26.7h6.79v-2.06h-6.79v2.06z"/><path id="Fill-22" class="cls-9" d="M36.32 24.03h6.79v-2.06h-6.79v2.06z"/><path id="Fill-23" class="cls-9" d="M36.32 21.35h6.79V19.3h-6.79v2.05z"/><path id="Fill-24" class="cls-10" d="M36.32 18.68h6.79v-2.05h-6.79v2.05z"/><path id="Fill-25" class="cls-10" d="M36.32 16.01h6.79v-2.05h-6.79v2.05z"/><path id="Fill-26" class="cls-10" d="M36.32 13.34h6.79v-2.06h-6.79v2.06z"/><path id="Fill-27" class="cls-10" d="M36.32 10.67h6.79V8.61h-6.79v2.06z"/><path id="Fill-28" class="cls-10" d="M36.32 8h6.79V5.94h-6.79V8z"/></g><g id="Group-45"><path id="Fill-29" class="cls-11" d="M7.84 40.45h.94c1.39 0 1.61-.73 1.61-3.05v-4.63c0-2-.17-2.68-1.76-2.68h-.79zM6 28.52h3c3 0 3.32 1.06 3.32 5v4c0 3.46-.7 4.51-3.65 4.51H6z"/><path id="Fill-32" class="cls-11" d="M13.07 28.52h5.11v1.61h-3.29v4.23h3.05v1.58h-3.05v4.48h3.29v1.6h-5.11v-13.5z"/><path id="Fill-35" class="cls-11" d="M18.91 28.52h5.11v1.61h-3.29v4.23h3.05v1.58h-3.05v4.48h3.29v1.6h-5.11v-13.5z"/><path id="Fill-38" class="cls-11" d="M31.44 28.52h5.11v1.61h-3.28v4.23h3.04v1.58h-3.04v4.48h3.28v1.6h-5.11v-13.5z"/><path id="Fill-41" class="cls-11" d="M24.75 40.44l4.2-10.34h-4.2v-1.58h5.96v1.58l-4.13 10.34h4.13v1.59l-5.96-.01v-1.58z"/><path id="Fill-43" class="cls-11" d="M39.11 34.48h.56c1.48 0 1.71-.18 1.71-2.2S41.2 30.1 40 30.1h-.93zm-1.83-6h2.92c2.73 0 2.92.7 2.92 3.65 0 1.82-.17 2.7-1.7 3.17 1.27.13 1.71.79 1.71 2.07v2.93a9.15 9.15 0 0 0 .11 1.7h-1.82a2.4 2.4 0 0 1-.12-1.22v-3c0-1.28-.24-1.58-1.48-1.58h-.71V42h-1.83z"/></g></g></g></svg>