<svg xmlns="http://www.w3.org/2000/svg" viewBox="0 0 32 32"><g fill="none" fill-rule="evenodd"><path fill="#ED1C24" d="M0 24.857h5.834v-1.768H0zM0 22.559h5.834v-1.768H0zM0 20.261h5.834v-1.768H0z"/><path fill="#F6836C" d="M0 17.962h5.834v-1.767H0zM0 15.663h5.834v-1.767H0z"/><path fill="#FFF200" d="M6.541 24.857h5.835v-1.768H6.541zM6.541 22.559h5.834v-1.768H6.541zM6.541 20.261h5.834v-1.768H6.541z"/><path fill="#EC008C" d="M13.083 24.857h5.834v-1.768h-5.834zM13.083 22.559h5.834v-1.768h-5.834zM13.083 20.261h5.834v-1.768h-5.834z"/><path fill="#F680C5" d="M13.083 17.962h5.834v-1.767h-5.834zM13.083 15.663h5.834v-1.767h-5.834zM13.083 13.365h5.834v-1.768h-5.834zM13.083 11.068h5.834V9.3h-5.834z"/><path fill="#B2DB18" d="M19.624 24.857h5.834v-1.768h-5.834zM19.624 22.559h5.834v-1.768h-5.834zM19.624 20.261h5.834v-1.768h-5.834z"/><path fill="#D9ED84" d="M19.624 17.962h5.834v-1.767h-5.834zM19.624 15.663h5.834v-1.767h-5.834z"/><path fill="#59CAF5" d="M26.165 24.857H32v-1.768h-5.835zM26.165 22.559H32v-1.768h-5.835zM26.165 20.26H32v-1.767h-5.835z"/><path fill="#B2E6FA" d="M26.165 17.962H32v-1.768h-5.835zM26.165 15.663H32v-1.768h-5.835zM26.165 13.365H32v-1.768h-5.835zM26.165 11.066H32V9.299h-5.835zM26.165 8.768H32V7h-5.835z"/></g></svg>