<svg xmlns="http://www.w3.org/2000/svg" viewBox="0 0 32 32"><g fill="none" fill-rule="evenodd" transform="translate(0 7)"><polygon fill="#ED1C24" points="0 17.857 5.834 17.857 5.834 16.089 0 16.089"/><polygon fill="#ED1C24" points="0 15.559 5.834 15.559 5.834 13.791 0 13.791"/><polygon fill="#ED1C24" points="0 13.261 5.834 13.261 5.834 11.493 0 11.493"/><polygon fill="#F6836C" points="0 10.962 5.834 10.962 5.834 9.195 0 9.195"/><polygon fill="#F6836C" points="0 8.663 5.834 8.663 5.834 6.896 0 6.896"/><polygon fill="#FFF200" points="6.541 17.857 12.376 17.857 12.376 16.089 6.541 16.089"/><polygon fill="#FFF200" points="6.541 15.559 12.375 15.559 12.375 13.791 6.541 13.791"/><polygon fill="#FFF200" points="6.541 13.261 12.375 13.261 12.375 11.493 6.541 11.493"/><polygon fill="#EC008C" points="13.083 17.857 18.917 17.857 18.917 16.089 13.083 16.089"/><polygon fill="#EC008C" points="13.083 15.559 18.917 15.559 18.917 13.791 13.083 13.791"/><polygon fill="#EC008C" points="13.083 13.261 18.917 13.261 18.917 11.493 13.083 11.493"/><polygon fill="#F680C5" points="13.083 10.962 18.917 10.962 18.917 9.195 13.083 9.195"/><polygon fill="#F680C5" points="13.083 8.663 18.917 8.663 18.917 6.896 13.083 6.896"/><polygon fill="#F680C5" points="13.083 6.365 18.917 6.365 18.917 4.597 13.083 4.597"/><polygon fill="#F680C5" points="13.083 4.068 18.917 4.068 18.917 2.3 13.083 2.3"/><polygon fill="#B2DB18" points="19.624 17.857 25.458 17.857 25.458 16.089 19.624 16.089"/><polygon fill="#B2DB18" points="19.624 15.559 25.458 15.559 25.458 13.791 19.624 13.791"/><polygon fill="#B2DB18" points="19.624 13.261 25.458 13.261 25.458 11.493 19.624 11.493"/><polygon fill="#D9ED84" points="19.624 10.962 25.458 10.962 25.458 9.195 19.624 9.195"/><polygon fill="#D9ED84" points="19.624 8.663 25.458 8.663 25.458 6.896 19.624 6.896"/><polygon fill="#59CAF5" points="26.165 17.857 32 17.857 32 16.089 26.165 16.089"/><polygon fill="#59CAF5" points="26.165 15.559 32 15.559 32 13.791 26.165 13.791"/><polygon fill="#59CAF5" points="26.165 13.26 32 13.26 32 11.493 26.165 11.493"/><polygon fill="#B2E6FA" points="26.165 10.962 32 10.962 32 9.194 26.165 9.194"/><polygon fill="#B2E6FA" points="26.165 8.663 32 8.663 32 6.895 26.165 6.895"/><polygon fill="#B2E6FA" points="26.165 6.365 32 6.365 32 4.597 26.165 4.597"/><polygon fill="#B2E6FA" points="26.165 4.066 32 4.066 32 2.299 26.165 2.299"/><polygon fill="#B2E6FA" points="26.165 1.768 32 1.768 32 0 26.165 0"/></g></svg>