<svg xmlns="http://www.w3.org/2000/svg" viewBox="0 0 32 32"><defs><linearGradient id="a" x1="0%" x2="100.01%" y1="50%" y2="50%"><stop offset="0%" stop-color="#FF9900"/><stop offset="100%" stop-color="#FF8000"/></linearGradient><linearGradient id="b" x1=".11%" x2="100.1%" y1="50%" y2="50%"><stop offset="0%" stop-color="#FF8000"/><stop offset="100%" stop-color="#CC1852"/></linearGradient><linearGradient id="c" x1="0%" x2="100%" y1="40.75%" y2="58.72%"><stop offset="0%" stop-color="#FFCA00"/><stop offset="100%" stop-color="#CF1B37"/></linearGradient><linearGradient id="d" x1="0%" x2="100%" y1="33.67%" y2="66.33%"><stop offset="0%" stop-color="#FFD000"/><stop offset="100%" stop-color="#FD5B22"/></linearGradient><linearGradient id="e" x1="0%" x2="100%" y1="50%" y2="50%"><stop offset="0%" stop-color="#CC1852"/><stop offset="100%" stop-color="#231183"/></linearGradient><linearGradient id="f" x1="-3.94%" x2="103.94%" y1="58.8%" y2="41.2%"><stop offset="0%" stop-color="#CC1852"/><stop offset="100%" stop-color="#231183"/></linearGradient><linearGradient id="g" x1=".01%" x2="100%" y1="50%" y2="50%"><stop offset="0%" stop-color="#212A90"/><stop offset="100%" stop-color="#3459A5"/></linearGradient><linearGradient id="h" x1="-1.52%" x2="101.53%" y1="64.65%" y2="35.34%"><stop offset="0%" stop-color="#212A90"/><stop offset="100%" stop-color="#367B99"/></linearGradient><linearGradient id="i" x1="50%" x2="50%" y1="0%" y2="100%"><stop offset="0%" stop-color="#33A65E"/><stop offset="100%" stop-color="#358E7A"/></linearGradient></defs><g fill="none" fill-rule="evenodd" transform="translate(0 6)"><rect width="7" height="4" y="15" fill="url(#a)"/><rect width="7" height="4" x="8" y="15" fill="url(#b)"/><rect width="7" height="4" x="8" y="10" fill="url(#c)"/><rect width="7" height="4" x="8" y="5" fill="url(#d)"/><rect width="7" height="4" x="16" y="15" fill="url(#e)"/><rect width="7" height="4" x="16" y="10" fill="url(#f)"/><rect width="7" height="4" x="24" y="15" fill="url(#g)"/><rect width="7" height="4" x="24" y="10" fill="url(#h)"/><rect width="7" height="4" x="24" y="5" fill="url(#i)"/><rect width="7" height="4" x="24" fill="#40AB5D"/></g></svg>