<svg id="Layer_1" data-name="Layer 1" xmlns="http://www.w3.org/2000/svg" viewBox="0 0 48 48"><defs><style>.cls-1{fill:#162737;}.cls-2{fill:#e2241d;}.cls-3{fill:#ee8f7a;}.cls-4{fill:#fddc00;}.cls-5{fill:#d62c87;}.cls-6{fill:#e7a8cb;}.cls-7{fill:#c2d100;}.cls-8{fill:#e3e07a;}.cls-9{fill:#40b4e5;}.cls-10{fill:#bad8e9;}.cls-11{fill:#fff;}</style></defs><title>deezer</title><g id="icons_marques_services-en-ligne_deezer" data-name="icons/marques/services-en-ligne/deezer"><rect id="Rectangle" class="cls-1" width="48" height="48" rx="1.51" ry="1.51"/><g id="Group-4"><g id="Group-46"><polygon id="Fill-1" class="cls-2" points="5.91 26.7 12.69 26.7 12.69 24.64 5.91 24.64 5.91 26.7"/><polygon id="Fill-2" class="cls-2" points="5.91 24.03 12.69 24.03 12.69 21.97 5.91 21.97 5.91 24.03"/><polygon id="Fill-3" class="cls-2" points="5.91 21.36 12.69 21.36 12.69 19.3 5.91 19.3 5.91 21.36"/><polygon id="Fill-4" class="cls-3" points="5.91 18.68 12.69 18.68 12.69 16.63 5.91 16.63 5.91 18.68"/><polygon id="Fill-5" class="cls-3" points="5.91 16.01 12.69 16.01 12.69 13.96 5.91 13.96 5.91 16.01"/><polygon id="Fill-6" class="cls-4" points="13.51 26.7 20.29 26.7 20.29 24.64 13.51 24.64 13.51 26.7"/><polygon id="Fill-7" class="cls-4" points="13.51 24.03 20.29 24.03 20.29 21.97 13.51 21.97 13.51 24.03"/><polygon id="Fill-8" class="cls-4" points="13.51 21.36 20.29 21.36 20.29 19.3 13.51 19.3 13.51 21.36"/><polygon id="Fill-9" class="cls-5" points="21.12 26.7 27.9 26.7 27.9 24.64 21.12 24.64 21.12 26.7"/><polygon id="Fill-10" class="cls-5" points="21.12 24.03 27.9 24.03 27.9 21.97 21.12 21.97 21.12 24.03"/><polygon id="Fill-11" class="cls-5" points="21.12 21.36 27.9 21.36 27.9 19.3 21.12 19.3 21.12 21.36"/><polygon id="Fill-12" class="cls-6" points="21.12 18.68 27.9 18.68 27.9 16.63 21.12 16.63 21.12 18.68"/><polygon id="Fill-13" class="cls-6" points="21.12 16.01 27.9 16.01 27.9 13.96 21.12 13.96 21.12 16.01"/><polygon id="Fill-14" class="cls-6" points="21.12 13.34 27.9 13.34 27.9 11.28 21.12 11.28 21.12 13.34"/><polygon id="Fill-15" class="cls-6" points="21.12 10.67 27.9 10.67 27.9 8.61 21.12 8.61 21.12 10.67"/><polygon id="Fill-16" class="cls-7" points="28.72 26.7 35.5 26.7 35.5 24.64 28.72 24.64 28.72 26.7"/><polygon id="Fill-17" class="cls-7" points="28.72 24.03 35.5 24.03 35.5 21.97 28.72 21.97 28.72 24.03"/><polygon id="Fill-18" class="cls-7" points="28.72 21.36 35.5 21.36 35.5 19.3 28.72 19.3 28.72 21.36"/><polygon id="Fill-19" class="cls-8" points="28.72 18.68 35.5 18.68 35.5 16.63 28.72 16.63 28.72 18.68"/><polygon id="Fill-20" class="cls-8" points="28.72 16.01 35.5 16.01 35.5 13.96 28.72 13.96 28.72 16.01"/><polygon id="Fill-21" class="cls-9" points="36.32 26.7 43.11 26.7 43.11 24.64 36.32 24.64 36.32 26.7"/><polygon id="Fill-22" class="cls-9" points="36.32 24.03 43.11 24.03 43.11 21.97 36.32 21.97 36.32 24.03"/><polygon id="Fill-23" class="cls-9" points="36.32 21.35 43.11 21.35 43.11 19.3 36.32 19.3 36.32 21.35"/><polygon id="Fill-24" class="cls-10" points="36.32 18.68 43.11 18.68 43.11 16.63 36.32 16.63 36.32 18.68"/><polygon id="Fill-25" class="cls-10" points="36.32 16.01 43.11 16.01 43.11 13.96 36.32 13.96 36.32 16.01"/><polygon id="Fill-26" class="cls-10" points="36.32 13.34 43.11 13.34 43.11 11.28 36.32 11.28 36.32 13.34"/><polygon id="Fill-27" class="cls-10" points="36.32 10.67 43.11 10.67 43.11 8.61 36.32 8.61 36.32 10.67"/><polygon id="Fill-28" class="cls-10" points="36.32 8 43.11 8 43.11 5.94 36.32 5.94 36.32 8"/></g><g id="Group-45"><path id="Fill-29" class="cls-11" d="M7.84,40.45h.94c1.39,0,1.61-.73,1.61-3.05V32.77c0-2-.17-2.68-1.76-2.68H7.84ZM6,28.52H9c3,0,3.32,1.06,3.32,5v4c0,3.46-.7,4.51-3.65,4.51H6Z"/><polygon id="Fill-32" class="cls-11" points="13.07 28.52 18.18 28.52 18.18 30.13 14.89 30.13 14.89 34.36 17.94 34.36 17.94 35.94 14.89 35.94 14.89 40.42 18.18 40.42 18.18 42.02 13.07 42.02 13.07 28.52"/><polygon id="Fill-35" class="cls-11" points="18.91 28.52 24.02 28.52 24.02 30.13 20.73 30.13 20.73 34.36 23.78 34.36 23.78 35.94 20.73 35.94 20.73 40.42 24.02 40.42 24.02 42.02 18.91 42.02 18.91 28.52"/><polygon id="Fill-38" class="cls-11" points="31.44 28.52 36.55 28.52 36.55 30.13 33.27 30.13 33.27 34.36 36.31 34.36 36.31 35.94 33.27 35.94 33.27 40.42 36.55 40.42 36.55 42.02 31.44 42.02 31.44 28.52"/><polygon id="Fill-41" class="cls-11" points="24.75 40.44 28.95 30.1 24.75 30.1 24.75 28.52 30.71 28.52 30.71 30.1 26.58 40.44 30.71 40.44 30.71 42.03 24.75 42.02 24.75 40.44"/><path id="Fill-43" class="cls-11" d="M39.11,34.48h.56c1.48,0,1.71-.18,1.71-2.2S41.2,30.1,40,30.1h-.93Zm-1.83-6H40.2c2.73,0,2.92.7,2.92,3.65,0,1.82-.17,2.7-1.7,3.17,1.27.13,1.71.79,1.71,2.07v2.93A9.15,9.15,0,0,0,43.24,42H41.42a2.4,2.4,0,0,1-.12-1.22v-3c0-1.28-.24-1.58-1.48-1.58h-.71V42H37.28Z"/></g></g></g></svg>