<svg width="32" height="32" viewBox="0 0 32 32" fill="none" xmlns="http://www.w3.org/2000/svg">
<path fill-rule="evenodd" clip-rule="evenodd" d="M26.8385 4.88212C27.1346 3.16611 27.569 2.08703 28.0503 2.08498H28.0512C28.9486 2.08807 29.6761 5.8303 29.6761 10.4506C29.6761 15.071 28.9476 18.8163 28.0493 18.8163C27.6809 18.8163 27.3411 18.1803 27.0675 17.1147C26.6351 21.0157 25.7378 23.6974 24.699 23.6974C23.8952 23.6974 23.1739 22.0865 22.6897 19.546C22.359 24.3776 21.5268 27.8055 20.5542 27.8055C19.9437 27.8055 19.3872 26.4471 18.9752 24.2353C18.4797 28.801 17.3351 32.0001 16.0003 32.0001C14.6656 32.0001 13.5189 28.8021 13.0255 24.2353C12.6165 26.4471 12.06 27.8055 11.4465 27.8055C10.4739 27.8055 9.64369 24.3776 9.311 19.546C8.82673 22.0865 8.10743 23.6974 7.30166 23.6974C6.26393 23.6974 5.36558 21.0166 4.93319 17.1147C4.66154 18.1835 4.3197 18.8163 3.95141 18.8163C3.05306 18.8163 2.32461 15.071 2.32461 10.4506C2.32461 5.8303 3.05306 2.08498 3.95141 2.08498C4.43365 2.08498 4.86502 3.16713 5.16413 4.88212C5.64332 1.92316 6.42162 0 7.30166 0C8.34652 0 9.252 2.71984 9.68032 6.66924C10.0995 3.7948 10.7353 1.96232 11.4475 1.96232C12.4456 1.96232 13.294 5.56646 13.6084 10.5939C14.1995 8.01628 15.0552 6.39921 16.0024 6.39921C16.9495 6.39921 17.8052 8.0173 18.3953 10.5939C18.7107 5.56646 19.5581 1.96232 20.5562 1.96232C21.2673 1.96232 21.9022 3.7948 22.3234 6.66924C22.7507 2.71984 23.6562 0 24.701 0C25.5781 0 26.3593 1.9242 26.8385 4.88212ZM0 9.62783C0 7.56243 0.41306 5.88766 0.92277 5.88766C1.43248 5.88766 1.84554 7.56243 1.84554 9.62783C1.84554 11.6932 1.43248 13.368 0.92277 13.368C0.41306 13.368 0 11.6932 0 9.62783ZM30.1545 9.62783C30.1545 7.56243 30.5675 5.88766 31.0772 5.88766C31.5868 5.88766 32 7.56243 32 9.62783C32 11.6932 31.5868 13.368 31.0772 13.368C30.5675 13.368 30.1545 11.6932 30.1545 9.62783Z" fill="#A238FF"/>
</svg>
